<svg width="13" height="11" viewBox="0 0 13 11" fill="none" xmlns="http://www.w3.org/2000/svg">
<path d="M11.8954 2.47373C12.0654 3.08373 12.0654 3.70373 11.8954 4.33373C11.7254 4.96373 11.4254 5.51373 11.0054 5.94373L6.90542 10.1137C6.65542 10.3637 6.35542 10.4937 6.01542 10.4937C5.67542 10.4937 5.37542 10.3637 5.12542 10.1137L1.02542 5.94373C0.595416 5.51373 0.305416 4.97373 0.125416 4.34373C-0.0545842 3.71373 -0.0345842 3.09373 0.145416 2.48373C0.335416 1.81373 0.705416 1.23373 1.27542 0.753731C1.71542 0.373731 2.22542 0.143731 2.79542 0.0537308C3.36542 -0.0362692 3.95542 -0.0062692 4.52542 0.183731C5.09542 0.373731 5.58542 0.673731 6.01542 1.09373C6.43542 0.673731 6.93542 0.363731 7.50542 0.183731C8.07542 0.00373079 8.64542 -0.0462692 9.22542 0.0437308C9.80542 0.133731 10.3154 0.373731 10.7454 0.743731C11.3054 1.22373 11.6954 1.80373 11.8954 2.47373Z" fill="#EB5757"/>
</svg>
