<svg width="24" height="24" viewBox="0 0 24 24" fill="none" xmlns="http://www.w3.org/2000/svg">
<path d="M21.4744 6.315C20.9775 6.55562 20.7694 7.15375 21.01 7.65063C21.6669 9.0075 22 10.4706 22 12C22 17.5138 17.5138 22 12 22C6.48625 22 2 17.5138 2 12C2 6.48625 6.48625 2 12 2C14.285 2 16.4312 2.74625 18.2081 4.1575C18.6388 4.50125 19.2694 4.42938 19.6131 3.99688C19.9569 3.565 19.885 2.93563 19.4525 2.59188C17.3494 0.920625 14.7025 0 12 0C5.38375 0 0 5.38375 0 12C0 18.6162 5.38375 24 12 24C18.6162 24 24 18.6162 24 12C24 10.1663 23.5994 8.40938 22.81 6.77938C22.57 6.28125 21.97 6.07375 21.4744 6.315ZM12 4C11.4481 4 11 4.44812 11 5V12C11 12.5519 11.4481 13 12 13H17C17.5519 13 18 12.5519 18 12C18 11.4481 17.5519 11 17 11H13V5C13 4.44812 12.5519 4 12 4Z" fill="white"/>
</svg>
