<svg width="14" height="14" viewBox="0 0 14 14" fill="none" xmlns="http://www.w3.org/2000/svg">
<path d="M6.0188 11.7238L6.80859 13.866C6.83878 13.9469 6.91486 14 7.0006 14C7.08635 14 7.16363 13.9469 7.19262 13.866L7.9824 11.7238C8.62244 9.98982 9.98948 8.6217 11.7236 7.98292L13.866 7.1932C13.9469 7.16302 14 7.08694 14 7.00121C14 6.91547 13.9469 6.83819 13.866 6.80921L11.7236 6.01949C9.98948 5.37951 8.62124 4.01259 7.9824 2.27859L7.19382 0.134035C7.16363 0.0531309 7.08635 0 7.0006 0C6.91486 0 6.83757 0.0531309 6.80859 0.134035L6.0188 2.27618C5.37876 4.01018 4.01173 5.3783 2.27758 6.01708L0.134046 6.808C0.0531355 6.83819 0 6.91427 0 7C0 7.08573 0.0531355 7.16302 0.134046 7.192L2.27637 7.98171C4.01173 8.6217 5.37876 9.98982 6.0188 11.7238Z" fill="#828282"/>
</svg>
