<svg width="16" height="16" viewBox="0 0 16 16" fill="none" xmlns="http://www.w3.org/2000/svg">
<path d="M13.0523 1.75731C11.8902 2.86271 10.388 3.61382 8.70151 3.76971V0C10.3454 0.141718 11.8477 0.779451 13.0523 1.75731ZM8.70151 12.2161V15.9858C10.3454 15.8441 11.8335 15.2064 13.0381 14.2285C11.8902 13.1373 10.388 12.3862 8.70151 12.2161ZM7.28432 16V12.2161C5.59787 12.3862 4.10983 13.1373 2.94774 14.2427C4.15235 15.2205 5.65456 15.8441 7.28432 16ZM7.28432 3.76971V0C5.65456 0.141718 4.15235 0.779451 2.94774 1.75731C4.10983 2.86271 5.59787 3.61382 7.28432 3.76971ZM8.70151 8.70151V10.7706C10.7848 10.9407 12.6696 11.8477 14.0868 13.2223C15.1497 11.9894 15.8441 10.4163 16 8.70151H8.70151ZM7.28432 7.28432V5.22941C5.20106 5.05934 3.31621 4.15235 1.89903 2.77768C0.85031 4.01063 0.15589 5.56953 0 7.28432H7.28432ZM8.70151 5.22941V7.29849H15.9858C15.8299 5.5837 15.1355 4.01063 14.0726 2.77768C12.6696 4.15235 10.7989 5.05934 8.70151 5.22941ZM7.28432 10.7706V8.70151H0C0.15589 10.4163 0.85031 11.9894 1.9132 13.2223C3.33038 11.8477 5.20106 10.9407 7.28432 10.7706Z" fill="#E5AB55"/>
</svg>
