<svg width="25" height="24" viewBox="0 0 25 24" fill="none" xmlns="http://www.w3.org/2000/svg">
<path d="M21.5356 12.2588C21.4517 12.0944 21.4517 11.9053 21.5356 11.7409L22.3131 10.2147C22.7459 9.36515 22.4031 8.35229 21.5323 7.90933L19.9687 7.11325C19.8002 7.02732 19.6845 6.87459 19.6512 6.69412L19.3454 5.02112C19.1753 4.0895 18.2772 3.46373 17.3014 3.59615L15.5489 3.83404C15.3596 3.85982 15.1728 3.80123 15.0356 3.67388L13.7634 2.49305C13.0551 1.83565 11.9453 1.83565 11.237 2.49305L9.96484 3.67428C9.82765 3.80162 9.64039 3.85982 9.4515 3.83443L7.69897 3.59654C6.72318 3.46412 5.82514 4.08989 5.65497 5.02151L5.34925 6.69451C5.31627 6.87498 5.20066 7.02771 5.03212 7.11365L3.46849 7.90972C2.59691 8.35268 2.25414 9.36554 2.68687 10.2151L3.46401 11.7409C3.54787 11.9053 3.54787 12.0944 3.46401 12.2588L2.68687 13.785C2.25414 14.6346 2.59691 15.6474 3.46767 16.0904L5.03131 16.8865C5.19984 16.9724 5.31587 17.1251 5.34884 17.3056L5.65456 18.9786C5.80967 19.8266 6.56726 20.4211 7.43844 20.4211C7.52433 20.4211 7.61104 20.4153 7.69857 20.4036L9.45109 20.1657C9.63998 20.1399 9.82725 20.1985 9.96443 20.3258L11.2366 21.5067C11.5908 21.8356 12.0451 22 12.4998 22C12.9541 22 13.4088 21.8356 13.763 21.507L15.0352 20.3262C15.1723 20.1989 15.3596 20.1407 15.5485 20.1661L17.301 20.4039C18.2772 20.5364 19.1745 19.9106 19.345 18.979L19.6508 17.306C19.6837 17.1255 19.7993 16.9728 19.9683 16.8868L21.5319 16.0908C22.4027 15.6474 22.7455 14.6349 22.3127 13.7854L21.5356 12.2588ZM10.0955 6.80936C11.3107 6.80936 12.2995 7.75816 12.2995 8.92415C12.2995 10.0901 11.3107 11.0389 10.0955 11.0389C8.88035 11.0389 7.89153 10.0901 7.89153 8.92415C7.89153 7.75816 8.88035 6.80936 10.0955 6.80936ZM8.95811 16.2142C8.84086 16.3267 8.68698 16.3833 8.5331 16.3833C8.37922 16.3833 8.22534 16.3271 8.1081 16.2142C7.87321 15.9888 7.87321 15.624 8.1081 15.3986L16.0419 7.78589C16.2768 7.56051 16.657 7.56051 16.8919 7.78589C17.1268 8.01128 17.1268 8.3765 16.8919 8.6015L8.95811 16.2142ZM14.9041 17.1907C13.6889 17.1907 12.7001 16.2419 12.7001 15.076C12.7001 13.91 13.6889 12.9612 14.9041 12.9612C16.1192 12.9612 17.1081 13.91 17.1081 15.076C17.1081 16.2419 16.1192 17.1907 14.9041 17.1907ZM14.9041 14.1146C14.3517 14.1146 13.9022 14.5459 13.9022 15.076C13.9022 15.606 14.3517 16.0373 14.9041 16.0373C15.4565 16.0373 15.9059 15.606 15.9059 15.076C15.9059 14.5459 15.4565 14.1146 14.9041 14.1146ZM10.0955 7.96284C9.5431 7.96284 9.09367 8.39408 9.09367 8.92415C9.09367 9.45421 9.5431 9.88545 10.0955 9.88545C10.6479 9.88545 11.0974 9.45421 11.0974 8.92415C11.0974 8.39408 10.6479 7.96284 10.0955 7.96284Z" fill="white"/>
</svg>
