<svg width="17" height="12" viewBox="0 0 17 12" fill="none" xmlns="http://www.w3.org/2000/svg">
<path d="M6.06333 6.70667C1.6575 3.69333 1.3175 3.42667 0.311667 2.68C0.113333 2.54667 0 2.32 0 2.09333V1.50667C0 0.666667 0.708333 0 1.60083 0H15.4133C16.2917 0 17 0.666667 17 1.50667V2.10667C17 2.33333 16.8867 2.56 16.6883 2.69333C15.6683 3.44 15.3425 3.70667 10.9367 6.72C10.3842 7.09333 9.265 8.01333 8.5 8C7.735 8.01333 6.61583 7.09333 6.06333 6.70667ZM17 4.10667V10.4933C17 11.3333 16.2917 12 15.4133 12H1.60083C0.708333 12 0 11.3333 0 10.5067V4.10667C0 3.96 0.184167 3.86667 0.325833 3.96C1.0625 4.50667 2.05417 5.2 5.44 7.52C6.13417 8 7.32417 9.01333 8.5 9C9.69 9.01333 10.8942 7.97333 11.56 7.50667C14.9458 5.18667 15.9233 4.49333 16.6742 3.94667C16.8017 3.86667 17 3.96 17 4.10667Z" fill="#E5AB55"/>
</svg>
