<svg width="60" height="121" viewBox="0 0 60 121" fill="none" xmlns="http://www.w3.org/2000/svg">
<path opacity="0.3" d="M28.3262 0.69999C37.8262 0.69999 45.4262 3.14999 51.1262 8.04999C56.9262 12.85 59.8262 19.4 59.8262 27.7C59.8262 35.9 56.7762 42.85 50.6762 48.55C44.6762 54.25 36.4762 58.4 26.0762 61V82.9H23.0762V59.65C32.2762 56.25 38.4762 52.25 41.6762 47.65C44.8762 42.95 46.4762 37.25 46.4762 30.55C46.4762 21.45 44.5762 14.7 40.7762 10.3C37.0762 5.89999 31.9762 3.7 25.4762 3.7C22.5762 3.7 19.7762 4.1 17.0762 4.9C14.4762 5.69999 12.3762 7.09999 10.7762 9.1C12.6762 9.49999 14.1762 10.35 15.2762 11.65C16.4762 12.95 17.0762 14.65 17.0762 16.75C17.0762 19.25 16.2762 21.25 14.6762 22.75C13.0762 24.15 11.1262 24.85 8.82617 24.85C6.52617 24.85 4.62617 24.1 3.12617 22.6C1.62617 21.1 0.876172 19.2 0.876172 16.9C0.876172 12.9 3.22617 9.29999 7.92617 6.09999C13.2262 2.49999 20.0262 0.69999 28.3262 0.69999ZM24.7262 100.9C27.3262 100.9 29.5762 101.85 31.4762 103.75C33.3762 105.65 34.3262 107.9 34.3262 110.5C34.3262 113.1 33.3762 115.35 31.4762 117.25C29.5762 119.15 27.3262 120.1 24.7262 120.1C22.1262 120.1 19.8762 119.15 17.9762 117.25C16.0762 115.35 15.1262 113.1 15.1262 110.5C15.1262 107.9 16.0762 105.65 17.9762 103.75C19.8762 101.85 22.1262 100.9 24.7262 100.9Z" fill="#E5AB55"/>
</svg>
