<svg width="14" height="17" viewBox="0 0 14 17" fill="none" xmlns="http://www.w3.org/2000/svg">
<path d="M14 16.3342V17H0V16.3342C0 16.1075 0.173333 15.9375 0.373333 15.9375H1V0.793333C1 0.354167 1.33333 0 1.74667 0H12.2533C12.6667 0 13 0.354167 13 0.793333V15.9375H13.6267C13.8267 15.9375 14 16.1217 14 16.3342ZM4 3.85333C4 4.06583 4.17333 4.25 4.37333 4.25H5.62667C5.82667 4.25 6 4.06583 6 3.85333V2.52167C6 2.295 5.82667 2.125 5.62667 2.125H4.37333C4.17333 2.125 4 2.30917 4 2.52167V3.85333ZM4 7.04083C4 7.2675 4.17333 7.4375 4.37333 7.4375H5.62667C5.84 7.4375 6 7.25333 6 7.04083V5.70917C6 5.4825 5.82667 5.3125 5.62667 5.3125H4.37333C4.17333 5.3125 4 5.49667 4 5.70917V7.04083ZM6 10.2283V8.89667C6 8.68417 5.82667 8.5 5.62667 8.5H4.37333C4.17333 8.5 4 8.68417 4 8.89667V10.2283C4 10.4408 4.17333 10.625 4.37333 10.625H5.62667C5.82667 10.625 6 10.4408 6 10.2283ZM8 13.1467C8 12.9342 7.82667 12.75 7.62667 12.75H6.37333C6.17333 12.75 6 12.9342 6 13.1467V15.9375H8V13.1467ZM10 2.52167C10 2.295 9.82667 2.125 9.62667 2.125H8.37333C8.17333 2.125 8 2.30917 8 2.52167V3.85333C8 4.06583 8.17333 4.25 8.37333 4.25H9.62667C9.82667 4.25 10 4.06583 10 3.85333V2.52167ZM10 5.70917C10 5.4825 9.82667 5.3125 9.62667 5.3125H8.37333C8.17333 5.3125 8 5.49667 8 5.70917V7.04083C8 7.2675 8.17333 7.4375 8.37333 7.4375H9.62667C9.84 7.4375 10 7.25333 10 7.04083V5.70917ZM10 8.89667C10 8.68417 9.82667 8.5 9.62667 8.5H8.37333C8.17333 8.5 8 8.68417 8 8.89667V10.2283C8 10.4408 8.17333 10.625 8.37333 10.625H9.62667C9.84 10.625 10 10.4408 10 10.2283V8.89667Z" fill="#E5AB55"/>
</svg>
